<mxfile host="app.diagrams.net" agent="Mozilla/5.0 (Windows NT 10.0; Win64; x64) AppleWebKit/537.36 (KHTML, like Gecko) Chrome/129.0.0.0 Safari/537.36" version="24.7.12">
  <diagram name="Page-1" id="wHqGof-OoqQ8YfUpuGFb">
    <mxGraphModel dx="1434" dy="738" grid="1" gridSize="10" guides="1" tooltips="1" connect="1" arrows="1" fold="1" page="1" pageScale="1" pageWidth="850" pageHeight="1100" math="0" shadow="0">
      <root>
        <mxCell id="0" />
        <mxCell id="1" parent="0" />
        <mxCell id="lTo31LPykX4vVSw3QdY_-49" value="" style="ellipse;whiteSpace=wrap;html=1;aspect=fixed;strokeWidth=1;" vertex="1" parent="1">
          <mxGeometry x="NaN" y="NaN" width="NaN" height="20" as="geometry" />
        </mxCell>
        <mxCell id="lTo31LPykX4vVSw3QdY_-77" value="" style="group" vertex="1" connectable="0" parent="1">
          <mxGeometry x="30" width="800" height="620" as="geometry" />
        </mxCell>
        <mxCell id="lTo31LPykX4vVSw3QdY_-22" value="" style="rounded=0;whiteSpace=wrap;html=1;" vertex="1" parent="lTo31LPykX4vVSw3QdY_-77">
          <mxGeometry width="800" height="620" as="geometry" />
        </mxCell>
        <mxCell id="lTo31LPykX4vVSw3QdY_-3" value="" style="rounded=0;whiteSpace=wrap;html=1;" vertex="1" parent="lTo31LPykX4vVSw3QdY_-77">
          <mxGeometry x="10" y="110" width="660" height="440" as="geometry" />
        </mxCell>
        <mxCell id="lTo31LPykX4vVSw3QdY_-4" value="" style="rounded=0;whiteSpace=wrap;html=1;strokeColor=#3333FF;" vertex="1" parent="lTo31LPykX4vVSw3QdY_-77">
          <mxGeometry x="20" y="120" width="360" height="420" as="geometry" />
        </mxCell>
        <mxCell id="lTo31LPykX4vVSw3QdY_-32" value="" style="verticalLabelPosition=bottom;verticalAlign=top;html=1;shape=mxgraph.basic.rect;fillColor2=none;strokeWidth=1;size=20;indent=5;strokeColor=#FF3333;" vertex="1" parent="lTo31LPykX4vVSw3QdY_-77">
          <mxGeometry x="30" y="130" width="340" height="400" as="geometry" />
        </mxCell>
        <mxCell id="lTo31LPykX4vVSw3QdY_-5" value="" style="rounded=0;whiteSpace=wrap;html=1;strokeColor=#3333FF;" vertex="1" parent="lTo31LPykX4vVSw3QdY_-77">
          <mxGeometry x="390" y="120" width="270" height="420" as="geometry" />
        </mxCell>
        <mxCell id="lTo31LPykX4vVSw3QdY_-6" value="" style="endArrow=none;html=1;rounded=0;strokeColor=#66FF66;" edge="1" parent="lTo31LPykX4vVSw3QdY_-77">
          <mxGeometry width="50" height="50" relative="1" as="geometry">
            <mxPoint x="400" y="130" as="sourcePoint" />
            <mxPoint x="650" y="130" as="targetPoint" />
          </mxGeometry>
        </mxCell>
        <mxCell id="lTo31LPykX4vVSw3QdY_-7" value="" style="endArrow=none;html=1;rounded=0;strokeColor=#66FF66;" edge="1" parent="lTo31LPykX4vVSw3QdY_-77">
          <mxGeometry width="50" height="50" relative="1" as="geometry">
            <mxPoint x="400" y="530" as="sourcePoint" />
            <mxPoint x="650" y="530" as="targetPoint" />
          </mxGeometry>
        </mxCell>
        <mxCell id="lTo31LPykX4vVSw3QdY_-8" value="" style="endArrow=none;html=1;rounded=0;strokeColor=#66FF66;" edge="1" parent="lTo31LPykX4vVSw3QdY_-77">
          <mxGeometry width="50" height="50" relative="1" as="geometry">
            <mxPoint x="400" y="170" as="sourcePoint" />
            <mxPoint x="650" y="170" as="targetPoint" />
          </mxGeometry>
        </mxCell>
        <mxCell id="lTo31LPykX4vVSw3QdY_-9" value="" style="endArrow=none;html=1;rounded=0;strokeColor=#66FF66;" edge="1" parent="lTo31LPykX4vVSw3QdY_-77">
          <mxGeometry width="50" height="50" relative="1" as="geometry">
            <mxPoint x="400" y="210" as="sourcePoint" />
            <mxPoint x="650" y="210" as="targetPoint" />
          </mxGeometry>
        </mxCell>
        <mxCell id="lTo31LPykX4vVSw3QdY_-10" value="" style="endArrow=none;html=1;rounded=0;strokeColor=#66FF66;" edge="1" parent="lTo31LPykX4vVSw3QdY_-77">
          <mxGeometry width="50" height="50" relative="1" as="geometry">
            <mxPoint x="400" y="250" as="sourcePoint" />
            <mxPoint x="650" y="250" as="targetPoint" />
          </mxGeometry>
        </mxCell>
        <mxCell id="lTo31LPykX4vVSw3QdY_-11" value="" style="endArrow=none;html=1;rounded=0;strokeColor=#66FF66;" edge="1" parent="lTo31LPykX4vVSw3QdY_-77">
          <mxGeometry width="50" height="50" relative="1" as="geometry">
            <mxPoint x="400" y="290" as="sourcePoint" />
            <mxPoint x="650" y="290" as="targetPoint" />
          </mxGeometry>
        </mxCell>
        <mxCell id="lTo31LPykX4vVSw3QdY_-12" value="" style="endArrow=none;html=1;rounded=0;strokeColor=#66FF66;" edge="1" parent="lTo31LPykX4vVSw3QdY_-77">
          <mxGeometry width="50" height="50" relative="1" as="geometry">
            <mxPoint x="400" y="329.5" as="sourcePoint" />
            <mxPoint x="650" y="330" as="targetPoint" />
          </mxGeometry>
        </mxCell>
        <mxCell id="lTo31LPykX4vVSw3QdY_-13" value="" style="endArrow=none;html=1;rounded=0;strokeColor=#66FF66;" edge="1" parent="lTo31LPykX4vVSw3QdY_-77">
          <mxGeometry width="50" height="50" relative="1" as="geometry">
            <mxPoint x="400" y="370" as="sourcePoint" />
            <mxPoint x="650" y="370" as="targetPoint" />
          </mxGeometry>
        </mxCell>
        <mxCell id="lTo31LPykX4vVSw3QdY_-14" value="" style="endArrow=none;html=1;rounded=0;strokeColor=#66FF66;" edge="1" parent="lTo31LPykX4vVSw3QdY_-77">
          <mxGeometry width="50" height="50" relative="1" as="geometry">
            <mxPoint x="400" y="410" as="sourcePoint" />
            <mxPoint x="650" y="410" as="targetPoint" />
          </mxGeometry>
        </mxCell>
        <mxCell id="lTo31LPykX4vVSw3QdY_-15" value="" style="endArrow=none;html=1;rounded=0;strokeColor=#66FF66;" edge="1" parent="lTo31LPykX4vVSw3QdY_-77">
          <mxGeometry width="50" height="50" relative="1" as="geometry">
            <mxPoint x="400" y="450" as="sourcePoint" />
            <mxPoint x="650" y="450" as="targetPoint" />
          </mxGeometry>
        </mxCell>
        <mxCell id="lTo31LPykX4vVSw3QdY_-16" value="" style="endArrow=none;html=1;rounded=0;strokeColor=#66FF66;" edge="1" parent="lTo31LPykX4vVSw3QdY_-77">
          <mxGeometry width="50" height="50" relative="1" as="geometry">
            <mxPoint x="400" y="490" as="sourcePoint" />
            <mxPoint x="650" y="490" as="targetPoint" />
          </mxGeometry>
        </mxCell>
        <mxCell id="lTo31LPykX4vVSw3QdY_-17" value="" style="endArrow=none;html=1;rounded=0;strokeColor=#66FF66;" edge="1" parent="lTo31LPykX4vVSw3QdY_-77">
          <mxGeometry width="50" height="50" relative="1" as="geometry">
            <mxPoint x="400" y="130" as="sourcePoint" />
            <mxPoint x="400" y="530" as="targetPoint" />
          </mxGeometry>
        </mxCell>
        <mxCell id="lTo31LPykX4vVSw3QdY_-18" value="" style="endArrow=none;html=1;rounded=0;strokeColor=#66FF66;" edge="1" parent="lTo31LPykX4vVSw3QdY_-77">
          <mxGeometry width="50" height="50" relative="1" as="geometry">
            <mxPoint x="650" y="130" as="sourcePoint" />
            <mxPoint x="650" y="530" as="targetPoint" />
          </mxGeometry>
        </mxCell>
        <mxCell id="lTo31LPykX4vVSw3QdY_-19" value="" style="endArrow=none;html=1;rounded=0;strokeColor=#66FF66;" edge="1" parent="lTo31LPykX4vVSw3QdY_-77">
          <mxGeometry width="50" height="50" relative="1" as="geometry">
            <mxPoint x="590" y="130" as="sourcePoint" />
            <mxPoint x="590" y="530" as="targetPoint" />
          </mxGeometry>
        </mxCell>
        <mxCell id="lTo31LPykX4vVSw3QdY_-20" value="" style="endArrow=none;html=1;rounded=0;strokeColor=#66FF66;" edge="1" parent="lTo31LPykX4vVSw3QdY_-77">
          <mxGeometry width="50" height="50" relative="1" as="geometry">
            <mxPoint x="524.5" y="130" as="sourcePoint" />
            <mxPoint x="524.5" y="530" as="targetPoint" />
          </mxGeometry>
        </mxCell>
        <mxCell id="lTo31LPykX4vVSw3QdY_-21" value="" style="endArrow=none;html=1;rounded=0;strokeColor=#66FF66;" edge="1" parent="lTo31LPykX4vVSw3QdY_-77">
          <mxGeometry width="50" height="50" relative="1" as="geometry">
            <mxPoint x="460" y="130" as="sourcePoint" />
            <mxPoint x="460" y="530" as="targetPoint" />
          </mxGeometry>
        </mxCell>
        <mxCell id="lTo31LPykX4vVSw3QdY_-23" value="tk.Tk (app window)" style="whiteSpace=wrap;html=1;rounded=1;arcSize=50;align=center;verticalAlign=middle;strokeWidth=1;autosize=1;spacing=4;treeFolding=1;treeMoving=1;newEdgeStyle={&quot;edgeStyle&quot;:&quot;entityRelationEdgeStyle&quot;,&quot;startArrow&quot;:&quot;none&quot;,&quot;endArrow&quot;:&quot;none&quot;,&quot;segment&quot;:10,&quot;curved&quot;:1,&quot;sourcePerimeterSpacing&quot;:0,&quot;targetPerimeterSpacing&quot;:0};" vertex="1" parent="lTo31LPykX4vVSw3QdY_-77">
          <mxGeometry x="290" y="10" width="130" height="30" as="geometry" />
        </mxCell>
        <mxCell id="lTo31LPykX4vVSw3QdY_-24" value="" style="edgeStyle=entityRelationEdgeStyle;startArrow=none;endArrow=none;segment=10;curved=1;sourcePerimeterSpacing=0;targetPerimeterSpacing=0;rounded=0;entryX=0;entryY=0.5;entryDx=0;entryDy=0;exitX=0.358;exitY=0;exitDx=0;exitDy=0;exitPerimeter=0;" edge="1" target="lTo31LPykX4vVSw3QdY_-23" parent="lTo31LPykX4vVSw3QdY_-77" source="lTo31LPykX4vVSw3QdY_-3">
          <mxGeometry relative="1" as="geometry">
            <mxPoint x="300" y="110" as="sourcePoint" />
            <mxPoint x="365" y="55" as="targetPoint" />
          </mxGeometry>
        </mxCell>
        <mxCell id="lTo31LPykX4vVSw3QdY_-26" value="tk.Frame (to show model)" style="whiteSpace=wrap;html=1;rounded=1;arcSize=50;align=center;verticalAlign=middle;strokeWidth=1;autosize=1;spacing=4;treeFolding=1;treeMoving=1;newEdgeStyle={&quot;edgeStyle&quot;:&quot;entityRelationEdgeStyle&quot;,&quot;startArrow&quot;:&quot;none&quot;,&quot;endArrow&quot;:&quot;none&quot;,&quot;segment&quot;:10,&quot;curved&quot;:1,&quot;sourcePerimeterSpacing&quot;:0,&quot;targetPerimeterSpacing&quot;:0};strokeColor=#3333FF;" vertex="1" parent="lTo31LPykX4vVSw3QdY_-77">
          <mxGeometry x="77.16" y="70" width="162.84" height="30" as="geometry" />
        </mxCell>
        <mxCell id="lTo31LPykX4vVSw3QdY_-27" value="" style="edgeStyle=entityRelationEdgeStyle;startArrow=none;endArrow=none;segment=10;curved=1;sourcePerimeterSpacing=0;targetPerimeterSpacing=0;rounded=0;exitX=0.119;exitY=-0.002;exitDx=0;exitDy=0;exitPerimeter=0;strokeColor=#3333FF;" edge="1" target="lTo31LPykX4vVSw3QdY_-26" parent="lTo31LPykX4vVSw3QdY_-77">
          <mxGeometry relative="1" as="geometry">
            <mxPoint x="59.999999999999915" y="119.99999999999997" as="sourcePoint" />
            <Array as="points">
              <mxPoint x="87.16" y="102.84" />
            </Array>
          </mxGeometry>
        </mxCell>
        <mxCell id="lTo31LPykX4vVSw3QdY_-28" value="tk.Frame (to show toolbar)" style="whiteSpace=wrap;html=1;rounded=1;arcSize=50;align=center;verticalAlign=middle;strokeWidth=1;autosize=1;spacing=4;treeFolding=1;treeMoving=1;newEdgeStyle={&quot;edgeStyle&quot;:&quot;entityRelationEdgeStyle&quot;,&quot;startArrow&quot;:&quot;none&quot;,&quot;endArrow&quot;:&quot;none&quot;,&quot;segment&quot;:10,&quot;curved&quot;:1,&quot;sourcePerimeterSpacing&quot;:0,&quot;targetPerimeterSpacing&quot;:0};strokeColor=#3333FF;" vertex="1" parent="lTo31LPykX4vVSw3QdY_-77">
          <mxGeometry x="460" y="60" width="170" height="30" as="geometry" />
        </mxCell>
        <mxCell id="lTo31LPykX4vVSw3QdY_-29" value="" style="edgeStyle=entityRelationEdgeStyle;startArrow=none;endArrow=none;segment=10;curved=1;sourcePerimeterSpacing=0;targetPerimeterSpacing=0;rounded=0;exitX=0.205;exitY=-0.002;exitDx=0;exitDy=0;exitPerimeter=0;entryX=0;entryY=0.5;entryDx=0;entryDy=0;strokeColor=#3333FF;" edge="1" target="lTo31LPykX4vVSw3QdY_-28" parent="lTo31LPykX4vVSw3QdY_-77" source="lTo31LPykX4vVSw3QdY_-5">
          <mxGeometry relative="1" as="geometry">
            <mxPoint x="540" y="120.00000000000003" as="sourcePoint" />
            <Array as="points">
              <mxPoint x="480" y="100" />
              <mxPoint x="540" y="100" />
              <mxPoint x="520" y="110" />
              <mxPoint x="490" y="100" />
              <mxPoint x="480" y="110" />
            </Array>
          </mxGeometry>
        </mxCell>
        <mxCell id="lTo31LPykX4vVSw3QdY_-30" value="grid to place toolbar&#39;s widgets" style="whiteSpace=wrap;html=1;rounded=1;arcSize=50;align=center;verticalAlign=middle;strokeWidth=1;autosize=1;spacing=4;treeFolding=1;treeMoving=1;newEdgeStyle={&quot;edgeStyle&quot;:&quot;entityRelationEdgeStyle&quot;,&quot;startArrow&quot;:&quot;none&quot;,&quot;endArrow&quot;:&quot;none&quot;,&quot;segment&quot;:10,&quot;curved&quot;:1,&quot;sourcePerimeterSpacing&quot;:0,&quot;targetPerimeterSpacing&quot;:0};strokeColor=#66FF66;" vertex="1" parent="lTo31LPykX4vVSw3QdY_-77">
          <mxGeometry x="450" y="565" width="190" height="30" as="geometry" />
        </mxCell>
        <mxCell id="lTo31LPykX4vVSw3QdY_-31" value="" style="edgeStyle=entityRelationEdgeStyle;startArrow=none;endArrow=none;segment=10;curved=1;sourcePerimeterSpacing=0;targetPerimeterSpacing=0;rounded=0;strokeColor=#66FF66;entryX=0;entryY=0.5;entryDx=0;entryDy=0;" edge="1" target="lTo31LPykX4vVSw3QdY_-30" parent="lTo31LPykX4vVSw3QdY_-77">
          <mxGeometry relative="1" as="geometry">
            <mxPoint x="410" y="530" as="sourcePoint" />
            <Array as="points">
              <mxPoint x="480" y="530" />
              <mxPoint x="445" y="560" />
              <mxPoint x="430" y="570" />
              <mxPoint x="360" y="570" />
            </Array>
          </mxGeometry>
        </mxCell>
        <mxCell id="lTo31LPykX4vVSw3QdY_-33" value="tk.Canvas (to draw four-bar linkage)" style="whiteSpace=wrap;html=1;rounded=1;arcSize=50;align=center;verticalAlign=middle;strokeWidth=1;autosize=1;spacing=4;treeFolding=1;treeMoving=1;newEdgeStyle={&quot;edgeStyle&quot;:&quot;entityRelationEdgeStyle&quot;,&quot;startArrow&quot;:&quot;none&quot;,&quot;endArrow&quot;:&quot;none&quot;,&quot;segment&quot;:10,&quot;curved&quot;:1,&quot;sourcePerimeterSpacing&quot;:0,&quot;targetPerimeterSpacing&quot;:0};strokeColor=#FF3333;" vertex="1" parent="lTo31LPykX4vVSw3QdY_-77">
          <mxGeometry x="130" y="580" width="230" height="30" as="geometry" />
        </mxCell>
        <mxCell id="lTo31LPykX4vVSw3QdY_-34" value="" style="edgeStyle=entityRelationEdgeStyle;startArrow=none;endArrow=none;segment=10;curved=1;sourcePerimeterSpacing=0;targetPerimeterSpacing=0;rounded=0;entryX=0;entryY=0.5;entryDx=0;entryDy=0;exitX=0.2;exitY=1;exitDx=0;exitDy=0;exitPerimeter=0;strokeColor=#FF3333;" edge="1" target="lTo31LPykX4vVSw3QdY_-33" parent="lTo31LPykX4vVSw3QdY_-77" source="lTo31LPykX4vVSw3QdY_-32">
          <mxGeometry relative="1" as="geometry">
            <mxPoint x="160" y="622" as="sourcePoint" />
            <Array as="points">
              <mxPoint x="90" y="620" />
            </Array>
          </mxGeometry>
        </mxCell>
        <mxCell id="lTo31LPykX4vVSw3QdY_-35" value="" style="endArrow=none;html=1;rounded=0;" edge="1" parent="lTo31LPykX4vVSw3QdY_-77">
          <mxGeometry width="50" height="50" relative="1" as="geometry">
            <mxPoint x="120" y="430" as="sourcePoint" />
            <mxPoint x="280" y="350" as="targetPoint" />
          </mxGeometry>
        </mxCell>
        <mxCell id="lTo31LPykX4vVSw3QdY_-36" value="A" style="text;html=1;align=center;verticalAlign=middle;whiteSpace=wrap;rounded=0;" vertex="1" parent="lTo31LPykX4vVSw3QdY_-77">
          <mxGeometry x="110" y="440" width="20" height="30" as="geometry" />
        </mxCell>
        <mxCell id="lTo31LPykX4vVSw3QdY_-37" value="B" style="text;html=1;align=center;verticalAlign=middle;whiteSpace=wrap;rounded=0;" vertex="1" parent="lTo31LPykX4vVSw3QdY_-77">
          <mxGeometry x="270" y="360" width="20" height="30" as="geometry" />
        </mxCell>
        <mxCell id="lTo31LPykX4vVSw3QdY_-38" value="" style="endArrow=none;dashed=1;html=1;rounded=0;" edge="1" parent="lTo31LPykX4vVSw3QdY_-77">
          <mxGeometry width="50" height="50" relative="1" as="geometry">
            <mxPoint x="120" y="430" as="sourcePoint" />
            <mxPoint x="290" y="430" as="targetPoint" />
          </mxGeometry>
        </mxCell>
        <mxCell id="lTo31LPykX4vVSw3QdY_-41" value="" style="verticalLabelPosition=bottom;verticalAlign=top;html=1;shape=mxgraph.basic.partConcEllipse;startAngle=0.125;endAngle=0.26900770392397483;arcWidth=0;dashed=1;dashPattern=1 4;" vertex="1" parent="lTo31LPykX4vVSw3QdY_-77">
          <mxGeometry x="119" y="374" width="100" height="100" as="geometry" />
        </mxCell>
        <mxCell id="lTo31LPykX4vVSw3QdY_-42" value="tk.Canvas.create_line" style="whiteSpace=wrap;html=1;rounded=1;arcSize=50;align=center;verticalAlign=middle;strokeWidth=1;autosize=1;spacing=4;treeFolding=1;treeMoving=1;newEdgeStyle={&quot;edgeStyle&quot;:&quot;entityRelationEdgeStyle&quot;,&quot;startArrow&quot;:&quot;none&quot;,&quot;endArrow&quot;:&quot;none&quot;,&quot;segment&quot;:10,&quot;curved&quot;:1,&quot;sourcePerimeterSpacing&quot;:0,&quot;targetPerimeterSpacing&quot;:0};" vertex="1" parent="lTo31LPykX4vVSw3QdY_-77">
          <mxGeometry x="185" y="300" width="145" height="30" as="geometry" />
        </mxCell>
        <mxCell id="lTo31LPykX4vVSw3QdY_-43" value="" style="edgeStyle=entityRelationEdgeStyle;startArrow=none;endArrow=none;segment=10;curved=1;sourcePerimeterSpacing=0;targetPerimeterSpacing=0;rounded=0;entryX=0;entryY=0.5;entryDx=0;entryDy=0;" edge="1" target="lTo31LPykX4vVSw3QdY_-42" parent="lTo31LPykX4vVSw3QdY_-77">
          <mxGeometry relative="1" as="geometry">
            <mxPoint x="140" y="420" as="sourcePoint" />
          </mxGeometry>
        </mxCell>
        <mxCell id="lTo31LPykX4vVSw3QdY_-44" value="tk.Canvas.create_text" style="whiteSpace=wrap;html=1;rounded=1;arcSize=50;align=center;verticalAlign=middle;strokeWidth=1;autosize=1;spacing=4;treeFolding=1;treeMoving=1;newEdgeStyle={&quot;edgeStyle&quot;:&quot;entityRelationEdgeStyle&quot;,&quot;startArrow&quot;:&quot;none&quot;,&quot;endArrow&quot;:&quot;none&quot;,&quot;segment&quot;:10,&quot;curved&quot;:1,&quot;sourcePerimeterSpacing&quot;:0,&quot;targetPerimeterSpacing&quot;:0};" vertex="1" parent="lTo31LPykX4vVSw3QdY_-77">
          <mxGeometry x="170" y="490" width="150" height="30" as="geometry" />
        </mxCell>
        <mxCell id="lTo31LPykX4vVSw3QdY_-45" value="" style="edgeStyle=entityRelationEdgeStyle;startArrow=none;endArrow=none;segment=10;curved=1;sourcePerimeterSpacing=0;targetPerimeterSpacing=0;rounded=0;exitX=1;exitY=0.5;exitDx=0;exitDy=0;" edge="1" target="lTo31LPykX4vVSw3QdY_-44" parent="lTo31LPykX4vVSw3QdY_-77" source="lTo31LPykX4vVSw3QdY_-36">
          <mxGeometry relative="1" as="geometry">
            <mxPoint x="150" y="522" as="sourcePoint" />
          </mxGeometry>
        </mxCell>
        <mxCell id="lTo31LPykX4vVSw3QdY_-46" value="tk.Canvas.create_arc" style="whiteSpace=wrap;html=1;rounded=1;arcSize=50;align=center;verticalAlign=middle;strokeWidth=1;autosize=1;spacing=4;treeFolding=1;treeMoving=1;newEdgeStyle={&quot;edgeStyle&quot;:&quot;entityRelationEdgeStyle&quot;,&quot;startArrow&quot;:&quot;none&quot;,&quot;endArrow&quot;:&quot;none&quot;,&quot;segment&quot;:10,&quot;curved&quot;:1,&quot;sourcePerimeterSpacing&quot;:0,&quot;targetPerimeterSpacing&quot;:0};" vertex="1" parent="lTo31LPykX4vVSw3QdY_-77">
          <mxGeometry x="250" y="430" width="120" height="30" as="geometry" />
        </mxCell>
        <mxCell id="lTo31LPykX4vVSw3QdY_-47" value="" style="edgeStyle=entityRelationEdgeStyle;startArrow=none;endArrow=none;segment=10;curved=1;sourcePerimeterSpacing=0;targetPerimeterSpacing=0;rounded=0;exitX=0.93;exitY=0.25;exitDx=0;exitDy=0;exitPerimeter=0;" edge="1" target="lTo31LPykX4vVSw3QdY_-46" parent="lTo31LPykX4vVSw3QdY_-77" source="lTo31LPykX4vVSw3QdY_-41">
          <mxGeometry relative="1" as="geometry">
            <mxPoint x="200" y="482" as="sourcePoint" />
          </mxGeometry>
        </mxCell>
        <mxCell id="lTo31LPykX4vVSw3QdY_-50" value="" style="ellipse;whiteSpace=wrap;html=1;aspect=fixed;strokeWidth=4;" vertex="1" parent="lTo31LPykX4vVSw3QdY_-77">
          <mxGeometry x="90" y="210" width="4" height="4" as="geometry" />
        </mxCell>
        <mxCell id="lTo31LPykX4vVSw3QdY_-51" value="tk.Canvas.create_oval" style="whiteSpace=wrap;html=1;rounded=1;arcSize=50;align=center;verticalAlign=middle;strokeWidth=1;autosize=1;spacing=4;treeFolding=1;treeMoving=1;newEdgeStyle={&quot;edgeStyle&quot;:&quot;entityRelationEdgeStyle&quot;,&quot;startArrow&quot;:&quot;none&quot;,&quot;endArrow&quot;:&quot;none&quot;,&quot;segment&quot;:10,&quot;curved&quot;:1,&quot;sourcePerimeterSpacing&quot;:0,&quot;targetPerimeterSpacing&quot;:0};" vertex="1" parent="lTo31LPykX4vVSw3QdY_-77">
          <mxGeometry x="120" y="168" width="150" height="30" as="geometry" />
        </mxCell>
        <mxCell id="lTo31LPykX4vVSw3QdY_-52" value="" style="edgeStyle=entityRelationEdgeStyle;startArrow=none;endArrow=none;segment=10;curved=1;sourcePerimeterSpacing=0;targetPerimeterSpacing=0;rounded=0;" edge="1" target="lTo31LPykX4vVSw3QdY_-51" parent="lTo31LPykX4vVSw3QdY_-77">
          <mxGeometry relative="1" as="geometry">
            <mxPoint x="94" y="210" as="sourcePoint" />
          </mxGeometry>
        </mxCell>
        <mxCell id="lTo31LPykX4vVSw3QdY_-53" value="" style="rounded=0;whiteSpace=wrap;html=1;" vertex="1" parent="lTo31LPykX4vVSw3QdY_-77">
          <mxGeometry x="70" y="250" width="70" height="30" as="geometry" />
        </mxCell>
        <mxCell id="lTo31LPykX4vVSw3QdY_-54" value="tk.Canvas.create_rectangle" style="whiteSpace=wrap;html=1;rounded=1;arcSize=50;align=center;verticalAlign=middle;strokeWidth=1;autosize=1;spacing=4;treeFolding=1;treeMoving=1;newEdgeStyle={&quot;edgeStyle&quot;:&quot;entityRelationEdgeStyle&quot;,&quot;startArrow&quot;:&quot;none&quot;,&quot;endArrow&quot;:&quot;none&quot;,&quot;segment&quot;:10,&quot;curved&quot;:1,&quot;sourcePerimeterSpacing&quot;:0,&quot;targetPerimeterSpacing&quot;:0};" vertex="1" parent="lTo31LPykX4vVSw3QdY_-77">
          <mxGeometry x="170" y="214" width="180" height="30" as="geometry" />
        </mxCell>
        <mxCell id="lTo31LPykX4vVSw3QdY_-55" value="" style="edgeStyle=entityRelationEdgeStyle;startArrow=none;endArrow=none;segment=10;curved=1;sourcePerimeterSpacing=0;targetPerimeterSpacing=0;rounded=0;" edge="1" target="lTo31LPykX4vVSw3QdY_-54" parent="lTo31LPykX4vVSw3QdY_-77">
          <mxGeometry relative="1" as="geometry">
            <mxPoint x="140" y="256" as="sourcePoint" />
          </mxGeometry>
        </mxCell>
        <mxCell id="lTo31LPykX4vVSw3QdY_-56" value="Input" style="text;html=1;align=center;verticalAlign=middle;whiteSpace=wrap;rounded=0;" vertex="1" parent="lTo31LPykX4vVSw3QdY_-77">
          <mxGeometry x="405" y="138" width="40" height="30" as="geometry" />
        </mxCell>
        <mxCell id="lTo31LPykX4vVSw3QdY_-57" value="tk.Text" style="whiteSpace=wrap;html=1;rounded=1;arcSize=50;align=center;verticalAlign=middle;strokeWidth=1;autosize=1;spacing=4;treeFolding=1;treeMoving=1;newEdgeStyle={&quot;edgeStyle&quot;:&quot;entityRelationEdgeStyle&quot;,&quot;startArrow&quot;:&quot;none&quot;,&quot;endArrow&quot;:&quot;none&quot;,&quot;segment&quot;:10,&quot;curved&quot;:1,&quot;sourcePerimeterSpacing&quot;:0,&quot;targetPerimeterSpacing&quot;:0};" vertex="1" parent="lTo31LPykX4vVSw3QdY_-77">
          <mxGeometry x="450" y="10" width="60" height="30" as="geometry" />
        </mxCell>
        <mxCell id="lTo31LPykX4vVSw3QdY_-58" value="" style="edgeStyle=entityRelationEdgeStyle;startArrow=none;endArrow=none;segment=10;curved=1;sourcePerimeterSpacing=0;targetPerimeterSpacing=0;rounded=0;exitX=0.375;exitY=0;exitDx=0;exitDy=0;exitPerimeter=0;" edge="1" target="lTo31LPykX4vVSw3QdY_-57" parent="lTo31LPykX4vVSw3QdY_-77" source="lTo31LPykX4vVSw3QdY_-56">
          <mxGeometry relative="1" as="geometry">
            <mxPoint x="630" y="152" as="sourcePoint" />
            <Array as="points">
              <mxPoint x="440" y="150" />
            </Array>
          </mxGeometry>
        </mxCell>
        <mxCell id="lTo31LPykX4vVSw3QdY_-64" value="" style="group" vertex="1" connectable="0" parent="lTo31LPykX4vVSw3QdY_-77">
          <mxGeometry x="460" y="138" width="187.5" height="61.5" as="geometry" />
        </mxCell>
        <mxCell id="lTo31LPykX4vVSw3QdY_-60" value="classification values" style="text;html=1;align=center;verticalAlign=middle;whiteSpace=wrap;rounded=0;" vertex="1" parent="lTo31LPykX4vVSw3QdY_-64">
          <mxGeometry width="115" height="30" as="geometry" />
        </mxCell>
        <mxCell id="lTo31LPykX4vVSw3QdY_-62" value="" style="whiteSpace=wrap;html=1;aspect=fixed;" vertex="1" parent="lTo31LPykX4vVSw3QdY_-64">
          <mxGeometry x="115" y="8.5" width="13" height="13" as="geometry" />
        </mxCell>
        <mxCell id="lTo31LPykX4vVSw3QdY_-74" value="" style="group" vertex="1" connectable="0" parent="lTo31LPykX4vVSw3QdY_-64">
          <mxGeometry x="-75.5" y="27.5" width="260" height="40" as="geometry" />
        </mxCell>
        <mxCell id="lTo31LPykX4vVSw3QdY_-70" value="" style="rounded=0;whiteSpace=wrap;html=1;fillColor=#CCCCCC;" vertex="1" parent="lTo31LPykX4vVSw3QdY_-74">
          <mxGeometry x="20" y="30" width="240" height="10" as="geometry" />
        </mxCell>
        <mxCell id="lTo31LPykX4vVSw3QdY_-71" value="" style="rounded=0;whiteSpace=wrap;html=1;" vertex="1" parent="lTo31LPykX4vVSw3QdY_-74">
          <mxGeometry x="150" y="30" width="20" height="10" as="geometry" />
        </mxCell>
        <mxCell id="lTo31LPykX4vVSw3QdY_-72" value="a" style="text;html=1;align=center;verticalAlign=middle;whiteSpace=wrap;rounded=0;" vertex="1" parent="lTo31LPykX4vVSw3QdY_-74">
          <mxGeometry width="60" height="30" as="geometry" />
        </mxCell>
        <mxCell id="lTo31LPykX4vVSw3QdY_-73" value="1.41" style="text;html=1;align=center;verticalAlign=middle;whiteSpace=wrap;rounded=0;" vertex="1" parent="lTo31LPykX4vVSw3QdY_-74">
          <mxGeometry x="130" width="60" height="30" as="geometry" />
        </mxCell>
        <mxCell id="lTo31LPykX4vVSw3QdY_-65" value="tk.Checkbutton" style="whiteSpace=wrap;html=1;rounded=1;arcSize=50;align=center;verticalAlign=middle;strokeWidth=1;autosize=1;spacing=4;treeFolding=1;treeMoving=1;newEdgeStyle={&quot;edgeStyle&quot;:&quot;entityRelationEdgeStyle&quot;,&quot;startArrow&quot;:&quot;none&quot;,&quot;endArrow&quot;:&quot;none&quot;,&quot;segment&quot;:10,&quot;curved&quot;:1,&quot;sourcePerimeterSpacing&quot;:0,&quot;targetPerimeterSpacing&quot;:0};" vertex="1" parent="lTo31LPykX4vVSw3QdY_-77">
          <mxGeometry x="670" y="54" width="120" height="30" as="geometry" />
        </mxCell>
        <mxCell id="lTo31LPykX4vVSw3QdY_-66" value="" style="edgeStyle=entityRelationEdgeStyle;startArrow=none;endArrow=none;segment=10;curved=1;sourcePerimeterSpacing=0;targetPerimeterSpacing=0;rounded=0;exitX=0.75;exitY=0;exitDx=0;exitDy=0;" edge="1" target="lTo31LPykX4vVSw3QdY_-65" parent="lTo31LPykX4vVSw3QdY_-77" source="lTo31LPykX4vVSw3QdY_-60">
          <mxGeometry relative="1" as="geometry">
            <mxPoint x="650" y="96" as="sourcePoint" />
            <Array as="points">
              <mxPoint x="660" y="100" />
            </Array>
          </mxGeometry>
        </mxCell>
        <mxCell id="lTo31LPykX4vVSw3QdY_-67" value="Exit" style="rounded=1;whiteSpace=wrap;html=1;" vertex="1" parent="lTo31LPykX4vVSw3QdY_-77">
          <mxGeometry x="600" y="143" width="40" height="20" as="geometry" />
        </mxCell>
        <mxCell id="lTo31LPykX4vVSw3QdY_-68" value="tk.Button" style="whiteSpace=wrap;html=1;rounded=1;arcSize=50;align=center;verticalAlign=middle;strokeWidth=1;autosize=1;spacing=4;treeFolding=1;treeMoving=1;newEdgeStyle={&quot;edgeStyle&quot;:&quot;entityRelationEdgeStyle&quot;,&quot;startArrow&quot;:&quot;none&quot;,&quot;endArrow&quot;:&quot;none&quot;,&quot;segment&quot;:10,&quot;curved&quot;:1,&quot;sourcePerimeterSpacing&quot;:0,&quot;targetPerimeterSpacing&quot;:0};" vertex="1" parent="lTo31LPykX4vVSw3QdY_-77">
          <mxGeometry x="715" y="110" width="75" height="30" as="geometry" />
        </mxCell>
        <mxCell id="lTo31LPykX4vVSw3QdY_-69" value="" style="edgeStyle=entityRelationEdgeStyle;startArrow=none;endArrow=none;segment=10;curved=1;sourcePerimeterSpacing=0;targetPerimeterSpacing=0;rounded=0;exitX=1;exitY=0.5;exitDx=0;exitDy=0;" edge="1" target="lTo31LPykX4vVSw3QdY_-68" parent="lTo31LPykX4vVSw3QdY_-77" source="lTo31LPykX4vVSw3QdY_-67">
          <mxGeometry relative="1" as="geometry">
            <mxPoint x="680" y="152" as="sourcePoint" />
          </mxGeometry>
        </mxCell>
        <mxCell id="lTo31LPykX4vVSw3QdY_-75" value="tk.Scale" style="whiteSpace=wrap;html=1;rounded=1;arcSize=50;align=center;verticalAlign=middle;strokeWidth=1;autosize=1;spacing=4;treeFolding=1;treeMoving=1;newEdgeStyle={&quot;edgeStyle&quot;:&quot;entityRelationEdgeStyle&quot;,&quot;startArrow&quot;:&quot;none&quot;,&quot;endArrow&quot;:&quot;none&quot;,&quot;segment&quot;:10,&quot;curved&quot;:1,&quot;sourcePerimeterSpacing&quot;:0,&quot;targetPerimeterSpacing&quot;:0};" vertex="1" parent="lTo31LPykX4vVSw3QdY_-77">
          <mxGeometry x="715" y="147.75" width="75" height="30" as="geometry" />
        </mxCell>
        <mxCell id="lTo31LPykX4vVSw3QdY_-76" value="" style="edgeStyle=entityRelationEdgeStyle;startArrow=none;endArrow=none;segment=10;curved=1;sourcePerimeterSpacing=0;targetPerimeterSpacing=0;rounded=0;exitX=1;exitY=0.25;exitDx=0;exitDy=0;" edge="1" target="lTo31LPykX4vVSw3QdY_-75" parent="lTo31LPykX4vVSw3QdY_-77" source="lTo31LPykX4vVSw3QdY_-70">
          <mxGeometry relative="1" as="geometry">
            <mxPoint x="680" y="189.75" as="sourcePoint" />
          </mxGeometry>
        </mxCell>
      </root>
    </mxGraphModel>
  </diagram>
</mxfile>
